%TF.GenerationSoftware,KiCad,Pcbnew,10.0.5*%
%TF.CreationDate,2026-07-26T16:48:32+12:00*%
%TF.ProjectId,pc-ir-remote-ESP32,70632d69-722d-4726-956d-6f74652d4553,rev?*%
%TF.SameCoordinates,Original*%
%TF.FileFunction,Soldermask,Top*%
%TF.FilePolarity,Negative*%
%FSLAX46Y46*%
G04 Gerber Fmt 4.6, Leading zero omitted, Abs format (unit mm)*
G04 Created by KiCad (PCBNEW 10.0.5) date 2026-07-26 16:48:32*
%MOMM*%
%LPD*%
G01*
G04 APERTURE LIST*
G04 Aperture macros list*
%AMRoundRect*
0 Rectangle with rounded corners*
0 $1 Rounding radius*
0 $2 $3 $4 $5 $6 $7 $8 $9 X,Y pos of 4 corners*
0 Add a 4 corners polygon primitive as box body*
4,1,4,$2,$3,$4,$5,$6,$7,$8,$9,$2,$3,0*
0 Add four circle primitives for the rounded corners*
1,1,$1+$1,$2,$3*
1,1,$1+$1,$4,$5*
1,1,$1+$1,$6,$7*
1,1,$1+$1,$8,$9*
0 Add four rect primitives between the rounded corners*
20,1,$1+$1,$2,$3,$4,$5,0*
20,1,$1+$1,$4,$5,$6,$7,0*
20,1,$1+$1,$6,$7,$8,$9,0*
20,1,$1+$1,$8,$9,$2,$3,0*%
G04 Aperture macros list end*
%ADD10C,2.000000*%
%ADD11RoundRect,0.243750X-0.243750X-0.456250X0.243750X-0.456250X0.243750X0.456250X-0.243750X0.456250X0*%
%ADD12RoundRect,0.150000X0.150000X-0.587500X0.150000X0.587500X-0.150000X0.587500X-0.150000X-0.587500X0*%
%ADD13RoundRect,0.250000X0.350000X0.450000X-0.350000X0.450000X-0.350000X-0.450000X0.350000X-0.450000X0*%
%ADD14R,1.700000X1.700000*%
%ADD15C,1.700000*%
%ADD16RoundRect,0.250000X0.450000X-0.350000X0.450000X0.350000X-0.450000X0.350000X-0.450000X-0.350000X0*%
%ADD17RoundRect,0.250000X-0.350000X-0.450000X0.350000X-0.450000X0.350000X0.450000X-0.350000X0.450000X0*%
%ADD18C,3.200000*%
%ADD19RoundRect,0.243750X0.243750X0.456250X-0.243750X0.456250X-0.243750X-0.456250X0.243750X-0.456250X0*%
%ADD20RoundRect,0.250000X0.475000X-0.250000X0.475000X0.250000X-0.475000X0.250000X-0.475000X-0.250000X0*%
%ADD21R,2.000000X2.000000*%
%ADD22RoundRect,0.250000X-0.250000X0.250000X-0.250000X-0.250000X0.250000X-0.250000X0.250000X0.250000X0*%
%ADD23RoundRect,0.250000X-0.550000X0.550000X-0.550000X-0.550000X0.550000X-0.550000X0.550000X0.550000X0*%
%ADD24C,1.600000*%
%ADD25C,1.552000*%
%ADD26RoundRect,0.250200X0.649800X-0.649800X0.649800X0.649800X-0.649800X0.649800X-0.649800X-0.649800X0*%
%ADD27C,1.800000*%
G04 APERTURE END LIST*
D10*
%TO.C,SW2*%
X146500000Y-89500000D03*
X153000000Y-89500000D03*
X146500000Y-94000000D03*
X153000000Y-94000000D03*
%TD*%
D11*
%TO.C,D4*%
X109625000Y-84000000D03*
X111500000Y-84000000D03*
%TD*%
D12*
%TO.C,Q1*%
X135550000Y-100437500D03*
X137450000Y-100437500D03*
X136500000Y-98562500D03*
%TD*%
D13*
%TO.C,R5*%
X134912500Y-103000000D03*
X132912500Y-103000000D03*
%TD*%
%TO.C,R2*%
X135000000Y-105500000D03*
X133000000Y-105500000D03*
%TD*%
D14*
%TO.C,J4*%
X123500000Y-112000000D03*
D15*
X120960000Y-112000000D03*
%TD*%
D14*
%TO.C,J8*%
X132275000Y-112000000D03*
D15*
X129735000Y-112000000D03*
%TD*%
D16*
%TO.C,R1*%
X167000000Y-72800000D03*
X167000000Y-70800000D03*
%TD*%
D17*
%TO.C,R10*%
X141500000Y-74250000D03*
X143500000Y-74250000D03*
%TD*%
D18*
%TO.C,H3*%
X175500000Y-122000000D03*
%TD*%
D14*
%TO.C,J1*%
X144275000Y-112000000D03*
D15*
X141735000Y-112000000D03*
%TD*%
D17*
%TO.C,R4*%
X135000000Y-87500000D03*
X137000000Y-87500000D03*
%TD*%
D19*
%TO.C,D2*%
X137000000Y-84000000D03*
X135125000Y-84000000D03*
%TD*%
D20*
%TO.C,C1*%
X167000000Y-68800000D03*
X167000000Y-66900000D03*
%TD*%
D21*
%TO.C,K1*%
X125420000Y-83840000D03*
D10*
X125420000Y-86380000D03*
X125420000Y-94000000D03*
X130500000Y-94000000D03*
X130500000Y-86380000D03*
X130500000Y-83840000D03*
%TD*%
D14*
%TO.C,J7*%
X112000000Y-79000000D03*
D15*
X114540000Y-79000000D03*
X117080000Y-79000000D03*
%TD*%
D22*
%TO.C,D3*%
X113500000Y-98250000D03*
X113500000Y-100750000D03*
%TD*%
D17*
%TO.C,R13*%
X111500000Y-103000000D03*
X113500000Y-103000000D03*
%TD*%
D12*
%TO.C,Q2*%
X109050000Y-100437500D03*
X110950000Y-100437500D03*
X110000000Y-98562500D03*
%TD*%
D14*
%TO.C,J2*%
X120960000Y-78992500D03*
D15*
X123500000Y-78992500D03*
X126040000Y-78992500D03*
%TD*%
D23*
%TO.C,U3*%
X128000000Y-98500000D03*
D24*
X125460000Y-98500000D03*
X125460000Y-106120000D03*
X128000000Y-106120000D03*
%TD*%
D22*
%TO.C,D1*%
X132750000Y-98350000D03*
X132750000Y-100850000D03*
%TD*%
D14*
%TO.C,J9*%
X131765000Y-78992500D03*
D15*
X134305000Y-78992500D03*
%TD*%
D25*
%TO.C,U1*%
X162500000Y-81380000D03*
X162500000Y-78840000D03*
X162500000Y-76300000D03*
X162500000Y-73760000D03*
X162500000Y-68680000D03*
X162500000Y-71220000D03*
X147260000Y-63600000D03*
X162500000Y-63600000D03*
X147260000Y-66140000D03*
X147260000Y-68680000D03*
X147260000Y-71220000D03*
X147260000Y-73760000D03*
X147260000Y-76300000D03*
X147260000Y-78840000D03*
X147260000Y-81380000D03*
X162500000Y-66140000D03*
%TD*%
D18*
%TO.C,H1*%
X104000000Y-65500000D03*
%TD*%
D13*
%TO.C,R9*%
X113500000Y-108000000D03*
X111500000Y-108000000D03*
%TD*%
%TO.C,R8*%
X111500000Y-87500000D03*
X109500000Y-87500000D03*
%TD*%
D17*
%TO.C,R3*%
X133000000Y-108000000D03*
X135000000Y-108000000D03*
%TD*%
D18*
%TO.C,H4*%
X104000000Y-122000000D03*
%TD*%
D14*
%TO.C,J5*%
X115500000Y-112000000D03*
D15*
X112960000Y-112000000D03*
%TD*%
D26*
%TO.C,U2*%
X173975000Y-107540000D03*
D27*
X173975000Y-105000000D03*
X173975000Y-102460000D03*
%TD*%
D21*
%TO.C,K2*%
X116285000Y-83840000D03*
D10*
X116285000Y-86380000D03*
X116285000Y-94000000D03*
X121365000Y-94000000D03*
X121365000Y-86380000D03*
X121365000Y-83840000D03*
%TD*%
D14*
%TO.C,J10*%
X163500000Y-107540000D03*
D15*
X163500000Y-105000000D03*
X163500000Y-102460000D03*
%TD*%
D10*
%TO.C,SW1*%
X157000000Y-89500000D03*
X163500000Y-89500000D03*
X157000000Y-94000000D03*
X163500000Y-94000000D03*
%TD*%
D13*
%TO.C,R11*%
X143500000Y-70550000D03*
X141500000Y-70550000D03*
%TD*%
D23*
%TO.C,U4*%
X121275000Y-98500000D03*
D24*
X118735000Y-98500000D03*
X118735000Y-106120000D03*
X121275000Y-106120000D03*
%TD*%
D17*
%TO.C,R7*%
X111587500Y-105500000D03*
X113587500Y-105500000D03*
%TD*%
D18*
%TO.C,H2*%
X175500000Y-65500000D03*
%TD*%
M02*
