M48
; DRILL file KiCad 10.0.3 date 2026-06-02T20:26:39
; FORMAT={-:-/ absolute / metric / decimal}
; #@! TF.CreationDate,2026-06-02T20:26:39+12:00
; #@! TF.GenerationSoftware,Kicad,Pcbnew,10.0.3
; #@! TF.FileFunction,Plated,1,2,PTH
FMAT,2
METRIC
; #@! TA.AperFunction,Plated,PTH,ViaDrill
T1C0.300
; #@! TA.AperFunction,Plated,PTH,ComponentDrill
T2C0.800
; #@! TA.AperFunction,Plated,PTH,ComponentDrill
T3C0.840
; #@! TA.AperFunction,Plated,PTH,ComponentDrill
T4C0.900
; #@! TA.AperFunction,Plated,PTH,ComponentDrill
T5C1.000
; #@! TA.AperFunction,Plated,PTH,ComponentDrill
T6C1.100
%
G90
G05
T1
X102.5Y-72.5
X102.5Y-73.5
X102.5Y-74.5
X102.5Y-75.5
X102.5Y-112.0
X102.5Y-113.0
X102.5Y-114.0
X102.5Y-115.0
X103.5Y-72.5
X103.5Y-73.5
X103.5Y-74.5
X103.5Y-75.5
X103.5Y-112.0
X103.5Y-113.0
X103.5Y-114.0
X103.5Y-115.0
X104.5Y-72.5
X104.5Y-73.5
X104.5Y-74.5
X104.5Y-75.5
X104.5Y-112.0
X104.5Y-113.0
X104.5Y-114.0
X104.5Y-115.0
X105.5Y-72.5
X105.5Y-73.5
X105.5Y-74.5
X105.5Y-75.5
X105.5Y-112.0
X105.5Y-113.0
X105.5Y-114.0
X105.5Y-115.0
X107.0Y-95.5
X107.5Y-99.5
X107.5Y-100.25
X107.5Y-101.0
X110.0Y-89.5
X110.0Y-90.25
X110.0Y-91.0
X110.0Y-102.5
X110.0Y-103.25
X110.0Y-104.0
X110.0Y-105.0
X110.0Y-105.75
X110.0Y-106.5
X111.0Y-64.0
X111.0Y-65.0
X111.0Y-66.0
X111.0Y-67.0
X112.0Y-64.0
X112.0Y-65.0
X112.0Y-66.0
X112.0Y-67.0
X113.0Y-64.0
X113.0Y-65.0
X113.0Y-66.0
X113.0Y-67.0
X114.0Y-64.0
X114.0Y-65.0
X114.0Y-66.0
X114.0Y-67.0
X118.0Y-111.5
X118.0Y-112.5
X120.5Y-102.0
X120.5Y-103.0
X120.5Y-104.0
X121.5Y-102.0
X121.5Y-103.0
X121.5Y-104.0
X126.5Y-111.5
X126.5Y-112.5
X127.0Y-102.0
X127.0Y-103.0
X127.0Y-104.0
X128.0Y-102.0
X128.0Y-103.0
X128.0Y-104.0
X128.5Y-83.5
X128.5Y-84.5
X131.0Y-99.0
X131.0Y-100.0
X134.5Y-99.5
X134.5Y-100.25
X134.5Y-101.0
X136.5Y-102.25
X136.5Y-103.0
X136.5Y-103.75
X136.5Y-104.75
X136.5Y-105.5
X136.5Y-106.25
X137.5Y-111.5
X137.5Y-112.5
X138.5Y-84.0
X138.5Y-87.5
X139.5Y-86.5
X139.5Y-95.5
X141.0Y-110.0
X141.5Y-64.0
X141.5Y-65.0
X141.5Y-66.0
X141.5Y-67.0
X141.5Y-77.75
X141.5Y-78.75
X141.5Y-79.75
X141.5Y-80.75
X141.75Y-93.485
X141.75Y-94.235
X141.75Y-94.985
X141.75Y-110.0
X142.5Y-64.0
X142.5Y-65.0
X142.5Y-66.0
X142.5Y-67.0
X142.5Y-77.75
X142.5Y-78.75
X142.5Y-79.75
X142.5Y-80.75
X142.5Y-110.0
X143.5Y-64.0
X143.5Y-65.0
X143.5Y-66.0
X143.5Y-67.0
X143.5Y-77.75
X143.5Y-78.75
X143.5Y-79.75
X143.5Y-80.75
X144.5Y-64.0
X144.5Y-65.0
X144.5Y-66.0
X144.5Y-67.0
X144.5Y-77.75
X144.5Y-78.75
X144.5Y-79.75
X144.5Y-80.75
X145.0Y-70.5
X146.0Y-99.0
X146.0Y-100.0
X146.0Y-101.0
X146.0Y-102.0
X147.0Y-99.0
X147.0Y-100.0
X147.0Y-101.0
X147.0Y-102.0
X147.5Y-84.0
X148.0Y-86.0
X148.0Y-87.5
X148.0Y-99.0
X148.0Y-100.0
X148.0Y-101.0
X148.0Y-102.0
X148.5Y-84.0
X148.5Y-111.5
X148.5Y-112.5
X149.0Y-99.0
X149.0Y-100.0
X149.0Y-101.0
X149.0Y-102.0
X153.25Y-62.75
X153.25Y-63.75
X153.25Y-64.75
X153.25Y-65.75
X154.0Y-67.5
X154.25Y-62.75
X154.25Y-63.75
X154.25Y-64.75
X154.25Y-65.75
X155.25Y-62.75
X155.25Y-63.75
X155.25Y-64.75
X155.25Y-65.75
X156.25Y-62.75
X156.25Y-63.75
X156.25Y-64.75
X156.25Y-65.75
X167.5Y-112.0
X167.5Y-113.0
X167.5Y-114.0
X167.5Y-115.0
X168.5Y-112.0
X168.5Y-113.0
X168.5Y-114.0
X168.5Y-115.0
X169.5Y-112.0
X169.5Y-113.0
X169.5Y-114.0
X169.5Y-115.0
X170.5Y-112.0
X170.5Y-113.0
X170.5Y-114.0
X170.5Y-115.0
X174.0Y-73.0
X174.0Y-74.0
X174.0Y-75.0
X174.0Y-76.0
X175.0Y-73.0
X175.0Y-74.0
X175.0Y-75.0
X175.0Y-76.0
X176.0Y-73.0
X176.0Y-74.0
X176.0Y-75.0
X176.0Y-76.0
X177.0Y-73.0
X177.0Y-74.0
X177.0Y-75.0
X177.0Y-76.0
T2
X118.735Y-98.5
X118.735Y-106.12
X121.275Y-98.5
X121.275Y-106.12
X125.46Y-98.5
X125.46Y-106.12
X128.0Y-98.5
X128.0Y-106.12
T3
X147.26Y-63.6
X147.26Y-66.14
X147.26Y-68.68
X147.26Y-71.22
X147.26Y-73.76
X147.26Y-76.3
X147.26Y-78.84
X147.26Y-81.38
X162.5Y-63.6
X162.5Y-66.14
X162.5Y-68.68
X162.5Y-71.22
X162.5Y-73.76
X162.5Y-76.3
X162.5Y-78.84
X162.5Y-81.38
T4
X173.975Y-102.46
X173.975Y-105.0
X173.975Y-107.54
T5
X112.0Y-79.0
X112.96Y-112.0
X114.54Y-79.0
X115.5Y-112.0
X116.285Y-83.84
X116.285Y-86.38
X116.285Y-94.0
X117.08Y-79.0
X120.96Y-78.992
X120.96Y-112.0
X121.365Y-83.84
X121.365Y-86.38
X121.365Y-94.0
X123.5Y-78.992
X123.5Y-112.0
X125.42Y-83.84
X125.42Y-86.38
X125.42Y-94.0
X126.04Y-78.992
X129.735Y-112.0
X130.5Y-83.84
X130.5Y-86.38
X130.5Y-94.0
X131.765Y-78.992
X132.275Y-112.0
X134.305Y-78.992
X141.735Y-112.0
X144.275Y-112.0
X163.5Y-102.46
X163.5Y-105.0
X163.5Y-107.54
T6
X146.5Y-89.5
X146.5Y-94.0
X153.0Y-89.5
X153.0Y-94.0
X157.0Y-89.5
X157.0Y-94.0
X163.5Y-89.5
X163.5Y-94.0
M30
